#N canvas 193 76 1092 873 10;
#X text 177 277 creation arguments are OSC address;
#X text 179 238 set message to change OSC address;
#X text 164 48 1 Set IP Address : network address;
#X text 164 68 2 Set Ports (sending and listening);
#X text 164 87 3 Set OSC Addresses (routing osc data;
#X text 155 26 Key Settings;
#X floatatom 43 194 5 0 0 0 - - - 0;
#N canvas 1099 23 623 462 oscReceive 0;
#X obj 55 184 netreceive -u -b;
#X msg 78 143 listen 0;
#X text 152 143 stop listening;
#X text 64 58 packets from network;
#X text 173 177 UDP packets \, binary output, f 13;
#X obj 45 314 print;
#X obj 45 272 oscparse;
#X text 150 114 listen on port 8000;
#X obj 177 269 oscparse;
#X obj 177 293 list trim;
#X floatatom 140 380 5 0 0 0 - - - 0;
#X text 241 267 Parse the OSC message;
#X obj 177 319 route unity;
#X obj 139 357 route trigger;
#X obj 140 407 s osctrig;
#X msg 66 115 listen 8000;
#X obj 66 84 loadbang;
#X floatatom 244 382 5 0 0 0 - - - 0;
#X obj 243 359 route tempo;
#X obj 244 409 s osctempo;
#X floatatom 339 382 5 0 0 0 - - - 0;
#X obj 338 359 route playseq;
#X obj 339 409 s oscplayseq;
#X floatatom 437 382 5 0 0 0 - - - 0;
#X obj 436 359 route colwall;
#X obj 437 409 s oscwall;
#X connect 0 0 6 0;
#X connect 0 0 8 0;
#X connect 1 0 0 0;
#X connect 6 0 5 0;
#X connect 8 0 9 0;
#X connect 9 0 12 0;
#X connect 10 0 14 0;
#X connect 12 0 13 0;
#X connect 12 0 18 0;
#X connect 12 0 21 0;
#X connect 12 0 24 0;
#X connect 13 0 10 0;
#X connect 15 0 0 0;
#X connect 16 0 15 0;
#X connect 17 0 19 0;
#X connect 18 0 17 0;
#X connect 20 0 22 0;
#X connect 21 0 20 0;
#X connect 23 0 25 0;
#X connect 24 0 23 0;
#X restore 47 142 pd oscReceive;
#X obj 47 36 tgl 15 0 empty empty empty 17 7 0 10 #fcfcfc #000000 #000000 0 1;
#X msg 47 61 \; pd dsp \$1;
#X obj 44 278 oscformat PD message;
#X msg 76 239 set PD message;
#N canvas 727 97 450 300 oscSend 0;
#X msg 158 207 disconnect;
#X obj 61 253 netsend -u -b;
#X obj 59 55 list prepend send;
#X obj 59 80 list trim;
#X msg 150 175 connect 127.0.0.1 8001;
#X obj 59 29 r oscOut;
#X text 301 163 send to port 8001;
#X msg 147 148 connect localhost 8001;
#X obj 147 108 loadbang;
#X connect 0 0 1 0;
#X connect 2 0 3 0;
#X connect 3 0 1 0;
#X connect 4 0 1 0;
#X connect 5 0 2 0;
#X connect 7 0 1 0;
#X connect 8 0 7 0;
#X restore 47 118 pd oscSend;
#X obj 44 313 s oscOut;
#X obj 888 785 *~;
#X obj 895 454 mtof;
#X obj 894 413 + 0;
#X obj 877 165 metro 4000;
#X obj 879 132 tgl 15 0 empty empty empty 17 7 0 10 #fcfcfc #000000 #000000 0 1;
#X floatatom 935 136 5 0 0 0 - - - 0;
#X obj 858 199 f;
#X obj 901 201 + 1;
#X obj 1054 693 vline~;
#X obj 1041 298 loadbang;
#X obj 878 234 mod 4;
#X msg 811 319 0;
#X obj 844 654 phasor~;
#X floatatom 842 595 5 0 0 0 - - - 0;
#X obj 919 653 phasor~;
#X obj 918 622 * -1;
#X obj 887 712 +~;
#X obj 941 561 bng 15 250 50 0 empty empty empty 17 7 0 10 #fcfcfc #000000 #000000;
#X obj 940 536 loadbang;
#X obj 995 85 r osctempo;
#X obj 920 59 loadbang;
#X msg 936 103 500;
#X obj 826 60 r oscplayseq;
#X msg 932 319 -3;
#X msg 974 319 -1;
#X msg 1057 606 0.5 25 \, 0 100 75;
#X msg 1041 325 48;
#X text 454 6 Trigger noise burst when running into a wall;
#X text 812 8 Sequence playback: tempo increases as more cubes are collected.;
#X obj 442 115 noise~;
#X msg 440 85 seed 123;
#X obj 440 241 *~;
#X obj 438 286 dac~;
#X obj 552 82 bng 19 250 50 0 empty empty empty 0 -10 0 12 #fcfcfc #000000 #000000;
#X obj 551 128 f;
#X floatatom 591 82 5 0 0 0 - - - 0;
#X obj 551 36 hsl 162 19 0 1 0 0 empty empty empty -2 -10 0 12 #fcfcfc #000000 #000000 0 1;
#X msg 550 165 \$1 25 \, 0 25 75;
#X obj 549 199 vline~;
#X obj 464 34 r oscwall;
#X text 628 60 Volume Control;
#X obj 205 671 vline~;
#X obj 205 721 *~;
#X obj 222 794 dac~;
#X obj 665 671 vline~;
#X obj 665 721 *~;
#X obj 376 446 r osctrig;
#X obj 377 485 tgl 13 0 empty empty empty 17 7 0 10 #fcfcfc #000000 #000000 0 1;
#X obj 375 531 sel 1 0;
#X msg 195 601 1 10 \, 0 150 10;
#X msg 655 601 1 10 \, 0 150 10;
#X obj 55 451 phasor~ 261.63;
#X obj 515 451 phasor~ 523.25;
#X obj 55 491 expr~ $v1 < 0.5;
#X obj 515 491 expr~ $v1 < 0.125;
#X text 51 429 Pulse Wave 1;
#X text 513 430 Pulse Wave 2;
#X text 205 501 Press toggle to switch;
#X msg 848 320 -7;
#X obj 873 264 select 0 1 2 3 4;
#X floatatom 1041 357 5 0 0 0 - - - 0;
#X text 213 421 Plays Pulse Waves 1&2 when a box is collected;
#X obj 885 745 -~ 1;
#X msg 920 591 0;
#X msg 968 591 0.5;
#X obj 643 790 dac~;
#X obj 221 763 *~ master;
#X floatatom 299 726 5 0 0 0 - - - 0;
#X obj 574 274 vsl 16 136 0 2 0 0 empty empty empty 0 -9 0 10 #fcfcfc #000000 #000000 0 1;
#X floatatom 574 746 5 0 0 0 - - - 0;
#X obj 615 273 vsl 16 136 0 2 0 0 empty empty empty 0 -9 0 10 #fcfcfc #000000 #000000 0 1;
#X obj 632 760 *~ master;
#X text 549 221 Volume Control for both pulses Pulse 1 <- Pulse 2 ->, f 15;
#X obj 879 846 dac~;
#X floatatom 810 802 5 0 0 0 - - - 0;
#X obj 760 282 vsl 16 136 0 2 0 0 empty empty empty 0 -9 0 10 #fcfcfc #000000 #000000 0 1;
#X obj 868 816 *~ master;
#X text 697 241 Volume Control for Triangle Wave, f 23;
#X connect 6 0 10 0;
#X connect 8 0 9 0;
#X connect 10 0 13 0;
#X connect 11 0 10 0;
#X connect 14 0 90 0;
#X connect 15 0 27 0;
#X connect 16 0 15 0;
#X connect 17 0 20 0;
#X connect 17 0 39 0;
#X connect 18 0 17 0;
#X connect 19 0 17 1;
#X connect 20 0 21 0;
#X connect 20 0 24 0;
#X connect 21 0 20 1;
#X connect 22 0 14 1;
#X connect 23 0 40 0;
#X connect 24 0 73 0;
#X connect 25 0 16 0;
#X connect 26 0 30 0;
#X connect 27 0 26 0;
#X connect 27 0 29 0;
#X connect 28 0 30 1;
#X connect 29 0 28 0;
#X connect 30 0 76 0;
#X connect 31 0 77 0;
#X connect 31 0 78 0;
#X connect 32 0 31 0;
#X connect 33 0 19 0;
#X connect 34 0 35 0;
#X connect 35 0 19 0;
#X connect 36 0 18 0;
#X connect 36 0 35 0;
#X connect 37 0 16 0;
#X connect 38 0 16 0;
#X connect 39 0 22 0;
#X connect 40 0 74 0;
#X connect 43 0 45 0;
#X connect 44 0 43 0;
#X connect 45 0 46 0;
#X connect 45 0 46 1;
#X connect 47 0 48 0;
#X connect 48 0 51 0;
#X connect 49 0 48 1;
#X connect 50 0 49 0;
#X connect 51 0 52 0;
#X connect 52 0 45 1;
#X connect 53 0 47 0;
#X connect 55 0 56 1;
#X connect 56 0 80 0;
#X connect 58 0 59 1;
#X connect 59 0 85 0;
#X connect 60 0 61 0;
#X connect 61 0 62 0;
#X connect 62 0 63 0;
#X connect 62 1 64 0;
#X connect 63 0 55 0;
#X connect 64 0 58 0;
#X connect 65 0 67 0;
#X connect 66 0 68 0;
#X connect 67 0 56 0;
#X connect 68 0 59 0;
#X connect 72 0 16 0;
#X connect 73 0 25 0;
#X connect 73 1 72 0;
#X connect 73 3 37 0;
#X connect 73 4 38 0;
#X connect 74 0 16 1;
#X connect 76 0 14 0;
#X connect 77 0 26 1;
#X connect 78 0 28 1;
#X connect 80 0 57 0;
#X connect 80 0 57 1;
#X connect 81 0 80 1;
#X connect 82 0 81 0;
#X connect 83 0 85 1;
#X connect 84 0 83 0;
#X connect 85 0 79 0;
#X connect 85 0 79 1;
#X connect 88 0 90 1;
#X connect 89 0 88 0;
#X connect 90 0 87 0;
#X connect 90 0 87 1;
