#N canvas 241 71 1251 900 10;
#X text 177 277 creation arguments are OSC address;
#X text 179 238 set message to change OSC address;
#X text 164 48 1 Set IP Address : network address;
#X text 164 68 2 Set Ports (sending and listening);
#X text 164 87 3 Set OSC Addresses (routing osc data;
#X text 155 26 Key Settings;
#X floatatom 43 194 5 0 0 0 - - - 0;
#X obj 455 322 select 0 1 2 3 4 5 6 7 8;
#X floatatom 495 579 5 0 0 0 - - - 0;
#X obj 495 733 *~;
#X obj 486 778 dac~;
#X obj 494 548 mtof;
#X obj 492 487 + 0;
#X obj 610 639 vline~;
#X floatatom 799 423 5 0 0 0 - - - 0;
#X obj 799 370 loadbang;
#X msg 450 393 0;
#X floatatom 480 270 5 0 0 0 - - - 0;
#N canvas 1099 23 623 462 oscReceive 0;
#X obj 55 184 netreceive -u -b;
#X msg 78 143 listen 0;
#X text 152 143 stop listening;
#X text 64 58 packets from network;
#X text 173 177 UDP packets \, binary output, f 13;
#X obj 45 314 print;
#X obj 45 272 oscparse;
#X text 150 114 listen on port 8000;
#X obj 177 269 oscparse;
#X obj 177 293 list trim;
#X floatatom 140 380 5 0 0 0 - - - 0;
#X text 241 267 Parse the OSC message;
#X obj 177 319 route unity;
#X obj 139 357 route trigger;
#X obj 140 407 s osctrig;
#X msg 66 115 listen 8000;
#X obj 66 84 loadbang;
#X floatatom 244 382 5 0 0 0 - - - 0;
#X obj 243 359 route tempo;
#X obj 244 409 s osctempo;
#X floatatom 339 382 5 0 0 0 - - - 0;
#X obj 338 359 route playseq;
#X obj 339 409 s oscplayseq;
#X floatatom 437 382 5 0 0 0 - - - 0;
#X obj 436 359 route colwall;
#X obj 437 409 s oscwall;
#X connect 0 0 6 0;
#X connect 0 0 8 0;
#X connect 1 0 0 0;
#X connect 6 0 5 0;
#X connect 8 0 9 0;
#X connect 9 0 12 0;
#X connect 10 0 14 0;
#X connect 12 0 13 0;
#X connect 12 0 18 0;
#X connect 12 0 21 0;
#X connect 12 0 24 0;
#X connect 13 0 10 0;
#X connect 15 0 0 0;
#X connect 16 0 15 0;
#X connect 17 0 19 0;
#X connect 18 0 17 0;
#X connect 20 0 22 0;
#X connect 21 0 20 0;
#X connect 23 0 25 0;
#X connect 24 0 23 0;
#X restore 47 142 pd oscReceive;
#X obj 47 36 tgl 15 0 empty empty empty 17 7 0 10 #fcfcfc #000000 #000000 0 1;
#X msg 47 61 \; pd dsp \$1;
#X msg 489 393 2;
#X msg 530 393 4;
#X msg 572 393 5;
#X msg 609 394 7;
#X msg 650 394 9;
#X msg 692 394 11;
#X msg 726 394 12;
#X obj 44 278 oscformat PD message;
#X msg 76 239 set PD message;
#N canvas 727 97 450 300 oscSend 0;
#X msg 158 207 disconnect;
#X obj 61 253 netsend -u -b;
#X obj 59 55 list prepend send;
#X obj 59 80 list trim;
#X msg 150 175 connect 127.0.0.1 8001;
#X obj 59 29 r oscOut;
#X text 301 163 send to port 8001;
#X msg 147 148 connect localhost 8001;
#X obj 147 108 loadbang;
#X connect 0 0 1 0;
#X connect 2 0 3 0;
#X connect 3 0 1 0;
#X connect 4 0 1 0;
#X connect 5 0 2 0;
#X connect 7 0 1 0;
#X connect 8 0 7 0;
#X restore 47 118 pd oscSend;
#X obj 44 313 s oscOut;
#X obj 1389 965 *~;
#X obj 1380 1010 dac~;
#X obj 1396 634 mtof;
#X obj 1395 593 + 0;
#X obj 1378 345 metro 4000;
#X obj 1380 312 tgl 15 0 empty empty empty 17 7 0 10 #fcfcfc #000000 #000000 0 1;
#X floatatom 1436 316 5 0 0 0 - - - 0;
#X obj 1359 379 f;
#X obj 1402 381 + 1;
#X obj 1380 446 select 0 1 2 3;
#X obj 1558 838 vline~;
#X floatatom 1542 531 5 0 0 0 - - - 0;
#X obj 1542 478 loadbang;
#X obj 1379 414 mod 4;
#X msg 1353 499 0;
#X obj 1345 834 phasor~;
#X floatatom 1343 775 5 0 0 0 - - - 0;
#X obj 1420 833 phasor~;
#X obj 1419 802 * -1;
#X obj 1388 892 +~;
#X obj 1386 925 -~ 1;
#X msg 1421 771 0;
#X msg 1469 771 0.5;
#X obj 1442 741 bng 15 250 50 0 empty empty empty 17 7 0 10 #fcfcfc #000000 #000000;
#X obj 1441 716 loadbang;
#X obj 1496 265 r osctempo;
#X obj 1421 239 loadbang;
#X msg 1437 283 500;
#X obj 1327 240 r oscplayseq;
#X obj 450 653 osc~;
#X msg 1392 499 -5;
#X msg 1433 499 -3;
#X msg 1475 499 -1;
#X msg 1558 786 0.5 25 \, 0 100 75;
#X msg 1542 505 48;
#X obj 502 658 osc~;
#X msg 799 397 60;
#X obj 504 631 * 1.5;
#X msg 610 587 0.85 100 \, 0 500 500;
#X text 946 189 Trigger noise burst when running into a wall;
#X text 1313 188 Sequence playback: tempo increases as more cubes are collected.;
#X text 548 114 Matt was here;
#X obj 489 231 bng 16 250 50 0 empty empty empty 0 -8 0 10 #fcfcfc #000000 #000000;
#X obj 371 197 r osctrig;
#X obj 943 295 noise~;
#X msg 941 265 seed 123;
#X obj 941 421 *~;
#X obj 939 466 dac~;
#X obj 1053 262 bng 19 250 50 0 empty empty empty 0 -10 0 12 #fcfcfc #000000 #000000;
#X obj 1052 308 f;
#X floatatom 1092 262 5 0 0 0 - - - 0;
#X obj 1053 216 hsl 162 19 0 1 0 0 empty empty empty -2 -10 0 12 #fcfcfc #000000 #000000 0 1;
#X msg 1051 345 \$1 25 \, 0 25 75;
#X obj 1050 379 vline~;
#X obj 965 214 r oscwall;
#X text 1129 240 Volume Control;
#X obj 538 911 mtof;
#X obj 538 943 phasor~;
#X obj 538 983 expr~ $v1 < $f2;
#X obj 688 1033 sel 1 0;
#X msg 668 1103 1 10;
#X msg 728 1103 0 10;
#X obj 688 1163 vline~;
#X obj 688 1213 *~;
#X obj 898 1293 dac~;
#X obj 688 993 tgl 15 0 empty empty empty 17 7 0 10 #fcfcfc #000000 #000000 0 1;
#X floatatom 998 883 5 0 0 0 - - - 0;
#X obj 998 911 mtof;
#X obj 998 943 phasor~;
#X obj 998 983 expr~ $v1 < $f2;
#X floatatom 1138 923 5 0 0 0 - - - 0;
#X obj 1148 1033 sel 1 0;
#X msg 1128 1103 1 10;
#X msg 1188 1103 0 10;
#X obj 1148 1163 vline~;
#X obj 1148 1213 *~;
#X obj 1148 993 tgl 15 0 empty empty empty 17 7 0 10 #fcfcfc #000000 #000000 0 1;
#X text 408 853 Set the Pitch number box (0-127);
#X text 898 853 Set the Pitch number box (0-127);
#X text 1058 893 Choose an NES value: 0.125 \, 0.25 \, 0.5 \, or 0.75;
#X text 598 893 Choose an NES value: 0.125 \, 0.25 \, 0.5 \, or 0.75;
#X text 728 993 Press to trigger the sound;
#X text 1178 993 Press to trigger the sound;
#X floatatom 678 923 5 0 0 0 - - - 0;
#X floatatom 538 883 5 0 0 0 - - - 0;
#X text 451 198 Test Tirgger when picking up rotating cube...;
#X connect 6 0 28 0;
#X connect 7 0 16 0;
#X connect 7 1 21 0;
#X connect 7 2 22 0;
#X connect 7 3 23 0;
#X connect 7 4 24 0;
#X connect 7 5 25 0;
#X connect 7 6 26 0;
#X connect 7 7 27 0;
#X connect 7 8 16 0;
#X connect 8 0 61 0;
#X connect 8 0 69 0;
#X connect 9 0 10 0;
#X connect 9 0 10 1;
#X connect 11 0 8 0;
#X connect 12 0 11 0;
#X connect 12 0 70 0;
#X connect 13 0 9 1;
#X connect 14 0 12 1;
#X connect 15 0 68 0;
#X connect 16 0 12 0;
#X connect 17 0 7 0;
#X connect 19 0 20 0;
#X connect 21 0 12 0;
#X connect 22 0 12 0;
#X connect 23 0 12 0;
#X connect 24 0 12 0;
#X connect 25 0 12 0;
#X connect 26 0 12 0;
#X connect 27 0 12 0;
#X connect 28 0 31 0;
#X connect 29 0 28 0;
#X connect 32 0 33 0;
#X connect 32 0 33 1;
#X connect 34 0 48 0;
#X connect 35 0 34 0;
#X connect 36 0 39 0;
#X connect 36 0 65 0;
#X connect 37 0 36 0;
#X connect 38 0 36 1;
#X connect 39 0 40 0;
#X connect 39 0 45 0;
#X connect 40 0 39 1;
#X connect 41 0 46 0;
#X connect 41 1 62 0;
#X connect 41 2 63 0;
#X connect 41 3 64 0;
#X connect 42 0 32 1;
#X connect 43 0 35 1;
#X connect 44 0 66 0;
#X connect 45 0 41 0;
#X connect 46 0 35 0;
#X connect 47 0 51 0;
#X connect 48 0 47 0;
#X connect 48 0 50 0;
#X connect 49 0 51 1;
#X connect 50 0 49 0;
#X connect 51 0 52 0;
#X connect 52 0 32 0;
#X connect 53 0 47 1;
#X connect 54 0 49 1;
#X connect 55 0 53 0;
#X connect 55 0 54 0;
#X connect 56 0 55 0;
#X connect 57 0 38 0;
#X connect 58 0 59 0;
#X connect 59 0 38 0;
#X connect 60 0 37 0;
#X connect 60 0 59 0;
#X connect 61 0 9 0;
#X connect 62 0 35 0;
#X connect 63 0 35 0;
#X connect 64 0 35 0;
#X connect 65 0 42 0;
#X connect 66 0 43 0;
#X connect 67 0 9 0;
#X connect 68 0 14 0;
#X connect 69 0 67 0;
#X connect 70 0 13 0;
#X connect 74 0 17 0;
#X connect 75 0 74 0;
#X connect 76 0 78 0;
#X connect 77 0 76 0;
#X connect 78 0 79 0;
#X connect 78 0 79 1;
#X connect 80 0 81 0;
#X connect 81 0 84 0;
#X connect 82 0 81 1;
#X connect 83 0 82 0;
#X connect 84 0 85 0;
#X connect 85 0 78 1;
#X connect 86 0 80 0;
#X connect 88 0 89 0;
#X connect 89 0 90 0;
#X connect 90 0 95 0;
#X connect 91 0 92 0;
#X connect 91 2 93 0;
#X connect 92 0 94 0;
#X connect 93 0 94 0;
#X connect 94 0 95 1;
#X connect 95 0 96 0;
#X connect 95 0 96 1;
#X connect 97 0 91 0;
#X connect 98 0 99 0;
#X connect 99 0 100 0;
#X connect 100 0 101 0;
#X connect 101 0 107 0;
#X connect 102 0 101 1;
#X connect 103 0 104 0;
#X connect 103 2 105 0;
#X connect 104 0 106 0;
#X connect 105 0 106 0;
#X connect 106 0 107 1;
#X connect 107 0 96 0;
#X connect 107 0 96 1;
#X connect 108 0 103 0;
#X connect 115 0 90 1;
#X connect 116 0 88 0;
