#N canvas 912 497 465 346 12;
#X obj 37 28 tgl 19 0 empty empty empty 0 -10 0 12 #fcfcfc #000000 #000000 0 1;
#X msg 37 66 \; pd dsp \$1;
#X obj 158 98 noise~;
#X msg 156 68 seed 123;
#X obj 156 224 *~;
#X obj 154 269 dac~;
#X obj 268 65 bng 19 250 50 0 empty empty empty 0 -10 0 12 #fcfcfc #000000 #000000;
#X obj 267 111 f;
#X floatatom 307 65 5 0 0 0 - - - 0;
#X obj 268 19 hsl 162 19 0 1 0 0 empty empty empty -2 -10 0 12 #fcfcfc #000000 #000000 0 1;
#X msg 266 148 \$1 25 \, 0 25 75;
#X obj 265 182 vline~;
#X obj 180 17 r oscwall;
#X connect 0 0 1 0;
#X connect 2 0 4 0;
#X connect 3 0 2 0;
#X connect 4 0 5 0;
#X connect 4 0 5 1;
#X connect 6 0 7 0;
#X connect 7 0 10 0;
#X connect 8 0 7 1;
#X connect 9 0 8 0;
#X connect 10 0 11 0;
#X connect 11 0 4 1;
#X connect 12 0 6 0;
