#N canvas 0 30 1536 902 12;
#X obj 460 440 vline~;
#X obj 460 490 *~;
#X obj 670 570 dac~;
#X obj 920 440 vline~;
#X obj 920 490 *~;
#X obj 630 240 r osctrig;
#X obj 630 270 tgl 13 0 empty empty empty 17 7 0 10 #fcfcfc #000000
#000000 0 1;
#X obj 630 300 sel 1 0;
#X msg 450 370 1 10 \, 0 150 10;
#X msg 910 370 1 10 \, 0 150 10;
#X obj 310 220 phasor~ 261.63;
#X obj 770 220 phasor~ 523.25;
#X obj 310 260 expr~ $v1 < 0.5;
#X obj 770 260 expr~ $v1 < 0.125;
#X text 290 180 Pulse Wave 1;
#X text 770 180 Pulse Wave 2;
#X text 460 270 Press toggle to switch;
#X connect 0 0 1 1;
#X connect 1 0 2 0;
#X connect 1 0 2 1;
#X connect 3 0 4 1;
#X connect 4 0 2 0;
#X connect 4 0 2 1;
#X connect 5 0 6 0;
#X connect 6 0 7 0;
#X connect 7 0 8 0;
#X connect 7 1 9 0;
#X connect 8 0 0 0;
#X connect 9 0 3 0;
#X connect 10 0 12 0;
#X connect 11 0 13 0;
#X connect 12 0 1 0;
#X connect 13 0 4 0;
