#N canvas 0 0 1536 960 12;
#X floatatom 310 160 5 0 0 0 - - -, f 5;
#X obj 310 188 mtof;
#X obj 310 220 phasor~;
#X obj 310 260 expr~ $v1 < $f2;
#X floatatom 450 200 5 0 0 0 - - -, f 5;
#X obj 460 310 sel 1 0;
#X msg 440 380 1 10;
#X msg 500 380 0 10;
#X obj 460 440 vline~;
#X obj 460 490 *~;
#X obj 670 570 dac~;
#X obj 460 270 tgl 15 0 empty empty empty 17 7 0 10 #fcfcfc #000000
#000000 0 1;
#X floatatom 770 160 5 0 0 0 - - -, f 5;
#X obj 770 188 mtof;
#X obj 770 220 phasor~;
#X obj 770 260 expr~ $v1 < $f2;
#X floatatom 910 200 5 0 0 0 - - -, f 5;
#X obj 920 310 sel 1 0;
#X msg 900 380 1 10;
#X msg 960 380 0 10;
#X obj 920 440 vline~;
#X obj 920 490 *~;
#X obj 920 270 tgl 15 0 empty empty empty 17 7 0 10 #fcfcfc #000000
#000000 0 1;
#X text 180 130 Set the Pitch number box (0-127);
#X text 670 130 Set the Pitch number box (0-127);
#X text 830 170 Choose an NES value: 0.125 \, 0.25 \, 0.5 \, or 0.75
;
#X text 370 170 Choose an NES value: 0.125 \, 0.25 \, 0.5 \, or 0.75
;
#X text 500 270 Press to trigger the sound;
#X text 950 270 Press to trigger the sound;
#X connect 0 0 1 0;
#X connect 1 0 2 0;
#X connect 2 0 3 0;
#X connect 3 0 9 0;
#X connect 4 0 3 1;
#X connect 5 0 6 0;
#X connect 5 2 7 0;
#X connect 6 0 8 0;
#X connect 7 0 8 0;
#X connect 8 0 9 1;
#X connect 9 0 10 0;
#X connect 9 0 10 1;
#X connect 11 0 5 0;
#X connect 12 0 13 0;
#X connect 13 0 14 0;
#X connect 14 0 15 0;
#X connect 15 0 21 0;
#X connect 16 0 15 1;
#X connect 17 0 18 0;
#X connect 17 2 19 0;
#X connect 18 0 20 0;
#X connect 19 0 20 0;
#X connect 20 0 21 1;
#X connect 21 0 10 0;
#X connect 21 0 10 1;
#X connect 22 0 17 0;
