#N canvas 619 88 635 914 10;
#X obj 201 793 *~;
#X obj 192 838 dac~;
#X obj 208 462 mtof;
#X obj 207 421 + 0;
#X obj 190 173 metro 4000;
#X obj 192 140 tgl 15 0 empty empty empty 17 7 0 10 #fcfcfc #000000 #000000 0 1;
#X floatatom 248 144 5 0 0 0 - - - 0;
#X obj 171 207 f;
#X obj 214 209 + 1;
#X obj 370 666 vline~;
#X floatatom 354 359 5 0 0 0 - - - 0;
#X obj 354 306 loadbang;
#X obj 191 242 mod 4;
#X msg 134 325 0;
#X obj 157 662 phasor~;
#X floatatom 155 603 5 0 0 0 - - - 0;
#X obj 232 661 phasor~;
#X obj 200 720 +~;
#X obj 198 753 -~ 1;
#X msg 233 599 0;
#X obj 254 569 bng 15 250 50 0 empty empty empty 17 7 0 10 #fcfcfc #000000 #000000;
#X obj 253 544 loadbang;
#X obj 308 93 r osctempo;
#X obj 233 67 loadbang;
#X msg 249 111 500;
#X obj 139 68 r oscplayseq;
#X msg 204 327 -5;
#X msg 245 327 -3;
#X msg 287 327 -1;
#X msg 370 614 0.5 25 \, 0 100 75;
#X msg 354 333 48;
#X text 125 16 Sequence playback: tempo increases as more cubes are collected.;
#X obj 36 27 tgl 15 0 empty empty empty 17 7 0 10 #fcfcfc #000000 #000000 0 1;
#X msg 36 52 \; pd dsp \$1;
#X obj 192 274 select 0 1 2 3 4;
#X msg 172 325 -7;
#X obj 231 633 * -2;
#X msg 281 599 0.5;
#X connect 0 0 1 0;
#X connect 0 0 1 1;
#X connect 2 0 15 0;
#X connect 3 0 2 0;
#X connect 4 0 7 0;
#X connect 4 0 29 0;
#X connect 5 0 4 0;
#X connect 6 0 4 1;
#X connect 7 0 8 0;
#X connect 7 0 12 0;
#X connect 8 0 7 1;
#X connect 9 0 0 1;
#X connect 10 0 3 1;
#X connect 11 0 30 0;
#X connect 12 0 34 0;
#X connect 13 0 3 0;
#X connect 14 0 17 0;
#X connect 15 0 14 0;
#X connect 15 0 36 0;
#X connect 16 0 17 1;
#X connect 17 0 18 0;
#X connect 18 0 0 0;
#X connect 19 0 14 1;
#X connect 20 0 19 0;
#X connect 20 0 37 0;
#X connect 21 0 20 0;
#X connect 22 0 6 0;
#X connect 23 0 24 0;
#X connect 24 0 6 0;
#X connect 25 0 5 0;
#X connect 25 0 24 0;
#X connect 26 0 3 0;
#X connect 27 0 3 0;
#X connect 28 0 3 0;
#X connect 29 0 9 0;
#X connect 30 0 10 0;
#X connect 32 0 33 0;
#X connect 34 0 13 0;
#X connect 34 1 35 0;
#X connect 34 2 26 0;
#X connect 34 3 27 0;
#X connect 34 4 28 0;
#X connect 35 0 3 0;
#X connect 36 0 16 0;
#X connect 37 0 16 1;
